<svg aria-hidden="true" style="position: absolute; width: 0; height: 0; overflow: hidden;" version="1.1" xmlns="http://www.w3.org/2000/svg" xmlns:xlink="http://www.w3.org/1999/xlink">
<defs>
<symbol id="icon-pinterest" viewBox="0 0 32 32">
<title>icon-pinterest</title>
<path d="M17.144 2.609c-7.669 0-11.536 5.498-11.536 10.083 0 2.776 1.051 5.245 3.305 6.165 0.37 0.152 0.701 0.006 0.808-0.404 0.075-0.282 0.251-0.997 0.33-1.295 0.108-0.405 0.066-0.546-0.233-0.9-0.65-0.766-1.066-1.758-1.066-3.165 0-4.079 3.052-7.73 7.947-7.73 4.334 0 6.716 2.648 6.716 6.185 0 4.654-2.060 8.582-5.117 8.582-1.689 0-2.952-1.396-2.548-3.109 0.485-2.045 1.425-4.251 1.425-5.728 0-1.321-0.709-2.423-2.177-2.423-1.726 0-3.113 1.786-3.113 4.177 0 1.523 0.515 2.554 0.515 2.554s-1.766 7.485-2.076 8.795c-0.616 2.611-0.093 5.81-0.048 6.133 0.026 0.192 0.272 0.238 0.384 0.094 0.159-0.208 2.215-2.746 2.914-5.283 0.198-0.717 1.135-4.436 1.135-4.436 0.561 1.070 2.2 2.011 3.943 2.011 5.188 0 8.708-4.729 8.708-11.060 0.001-4.788-4.054-9.247-10.217-9.247z"></path>
</symbol>
<symbol id="instagram-icon" viewBox="0 0 32 32">
<title>instagram-icon</title>
<path d="M28.308 0h-24.616c-2.039 0-3.692 1.653-3.692 3.692v24.613c0 2.041 1.653 3.695 3.692 3.695h24.617c2.039 0 3.691-1.653 3.691-3.695v-24.613c0-2.039-1.652-3.692-3.692-3.692zM16 9.847c3.399 0 6.155 2.753 6.155 6.153 0 3.399-2.756 6.155-6.155 6.155s-6.153-2.757-6.153-6.155c0-3.4 2.755-6.153 6.153-6.153zM28 26.771c0 0.679-0.551 1.229-1.232 1.229h-21.536c-0.681 0-1.232-0.551-1.232-1.229v-13.437h2.529c-0.117 0.42-0.204 0.853-0.267 1.295-0.067 0.449-0.108 0.905-0.108 1.372 0 5.439 4.408 9.847 9.845 9.847s9.845-4.408 9.845-9.847c0-0.467-0.041-0.923-0.108-1.371-0.063-0.441-0.149-0.875-0.267-1.295h2.529v13.436zM28 8.131c0 0.679-0.551 1.231-1.232 1.231h-2.899c-0.681 0-1.231-0.552-1.231-1.231v-2.9c0-0.68 0.549-1.231 1.231-1.231h2.899c0.681 0 1.232 0.551 1.232 1.231v2.9z"></path>
</symbol>
<symbol id="facebook-icon" viewBox="0 0 32 32">
<title>facebook-icon</title>
<path d="M23.367 12h-4.7v-2.667c0-1.376 0.112-2.243 2.084-2.243h2.491v-4.24c-1.212-0.125-2.431-0.187-3.651-0.184-3.617 0-6.257 2.209-6.257 6.265v3.068h-4v5.333l4-0.001v12.001h5.333v-12.004l4.088-0.001 0.612-5.328z"></path>
</symbol>
<symbol id="twitter-icon" viewBox="0 0 32 32">
<title>twitter-icon</title>
<path d="M32 6.076c-1.177 0.523-2.443 0.875-3.771 1.033 1.356-0.812 2.397-2.099 2.887-3.632-1.268 0.752-2.673 1.299-4.169 1.593-1.196-1.276-2.904-2.073-4.792-2.073-4.239 0-7.353 3.955-6.396 8.060-5.455-0.273-10.292-2.887-13.531-6.859-1.72 2.951-0.892 6.811 2.031 8.765-1.075-0.035-2.088-0.329-2.972-0.821-0.072 3.041 2.108 5.887 5.265 6.52-0.924 0.251-1.936 0.309-2.965 0.112 0.835 2.608 3.259 4.505 6.133 4.559-2.76 2.164-6.237 3.131-9.72 2.72 2.905 1.863 6.357 2.949 10.064 2.949 12.189 0 19.076-10.295 18.66-19.528 1.283-0.927 2.396-2.083 3.276-3.399z"></path>
</symbol>
</defs>
</svg>
