<svg aria-hidden="true" style="position:absolute;width:0;height:0" xmlns="http://www.w3.org/2000/svg" overflow="hidden"><defs><symbol id="icon-pinterest" viewBox="0 0 32 32"><path d="M17.144 2.609c-7.669 0-11.536 5.498-11.536 10.083 0 2.776 1.051 5.245 3.305 6.165.37.152.701.006.808-.404.075-.282.251-.997.33-1.295.108-.405.066-.546-.233-.9-.65-.766-1.066-1.758-1.066-3.165 0-4.079 3.052-7.73 7.947-7.73 4.334 0 6.716 2.648 6.716 6.185 0 4.654-2.06 8.582-5.117 8.582-1.689 0-2.952-1.396-2.548-3.109.485-2.045 1.425-4.251 1.425-5.728 0-1.321-.709-2.423-2.177-2.423-1.726 0-3.113 1.786-3.113 4.177 0 1.523.515 2.554.515 2.554l-2.076 8.795c-.616 2.611-.093 5.81-.048 6.133.026.192.272.238.384.094.159-.208 2.215-2.746 2.914-5.283.198-.717 1.135-4.436 1.135-4.436.561 1.07 2.2 2.011 3.943 2.011 5.188 0 8.708-4.729 8.708-11.06.001-4.788-4.054-9.247-10.217-9.247z"/></symbol><symbol id="instagram-icon" viewBox="0 0 32 32"><path d="M28.308 0H3.692A3.692 3.692 0 0 0 0 3.692v24.613A3.693 3.693 0 0 0 3.692 32h24.617A3.692 3.692 0 0 0 32 28.305V3.692A3.691 3.691 0 0 0 28.308 0zM16 9.847A6.153 6.153 0 0 1 22.155 16 6.154 6.154 0 1 1 16 9.847zm12 16.924A1.23 1.23 0 0 1 26.768 28H5.232A1.23 1.23 0 0 1 4 26.771V13.334h2.529c-.117.42-.204.853-.267 1.295a9.269 9.269 0 0 0-.108 1.372c0 5.439 4.408 9.847 9.845 9.847s9.845-4.408 9.845-9.847c0-.467-.041-.923-.108-1.371a10.04 10.04 0 0 0-.267-1.295h2.529v13.436zm0-18.64c0 .679-.551 1.231-1.232 1.231h-2.899a1.23 1.23 0 0 1-1.231-1.231v-2.9c0-.68.549-1.231 1.231-1.231h2.899C27.449 4 28 4.551 28 5.231v2.9z"/></symbol><symbol id="facebook-icon" viewBox="0 0 32 32"><path d="M23.367 12h-4.7V9.333c0-1.376.112-2.243 2.084-2.243h2.491V2.85a34.76 34.76 0 0 0-3.651-.184c-3.617 0-6.257 2.209-6.257 6.265v3.068h-4v5.333l4-.001v12.001h5.333V17.328l4.088-.001.612-5.328z"/></symbol><symbol id="twitter-icon" viewBox="0 0 32 32"><path d="M32 6.076a13.074 13.074 0 0 1-3.771 1.033 6.58 6.58 0 0 0 2.887-3.632 13.133 13.133 0 0 1-4.169 1.593 6.554 6.554 0 0 0-4.792-2.073c-4.239 0-7.353 3.955-6.396 8.06-5.455-.273-10.292-2.887-13.531-6.859a6.573 6.573 0 0 0 2.031 8.765 6.54 6.54 0 0 1-2.972-.821c-.072 3.041 2.108 5.887 5.265 6.52a6.58 6.58 0 0 1-2.965.112 6.572 6.572 0 0 0 6.133 4.559A13.198 13.198 0 0 1 0 26.053a18.58 18.58 0 0 0 10.064 2.949c12.189 0 19.076-10.295 18.66-19.528A13.367 13.367 0 0 0 32 6.075z"/></symbol></defs></svg>